<svg width="49" height="52" viewBox="0 0 49 52" fill="none" xmlns="http://www.w3.org/2000/svg">
<g opacity="0.95">
<path d="M16.1828 3H38.1628C43.0128 3 46.4728 7.27 45.4728 12.02L40.6728 34.64C39.8628 38.47 36.3628 41.31 32.4428 41.31H10.4828C5.63276 41.31 2.17276 37.04 3.17276 32.3L7.95276 9.68C8.76276 5.84 12.2628 3 16.1828 3Z" stroke="#2F2D39" stroke-width="6"/>
<path d="M27.0828 19.07H32.9928C37.8428 19.07 41.3028 23.34 40.3028 28.09L38.9228 34.59C38.1128 38.42 34.6128 41.26 30.6928 41.26H24.7828C19.9328 41.26 16.4728 36.99 17.4728 32.25L18.8428 25.75C19.6528 21.91 23.1528 19.07 27.0728 19.07H27.0828Z" stroke="#2F2D39" stroke-width="6"/>
<path d="M18.8727 25.64L13.6427 48.66" stroke="#2F2D39" stroke-width="6" stroke-linecap="round"/>
</g>
</svg>
